<svg width="64" height="64" viewBox="0 0 64 64" fill="none" xmlns="http://www.w3.org/2000/svg">
<rect x="5" y="5" width="54" height="54" rx="12" fill="white"/>
<path d="M21.7181 46.432C18.5981 46.432 16.2341 45.568 14.6261 43.84C13.0181 42.112 12.2141 39.76 12.2141 36.784C12.2141 35.272 12.4181 33.916 12.8261 32.716C13.2581 31.492 13.8581 30.46 14.6261 29.62C15.4181 28.756 16.3661 28.108 17.4701 27.676C18.5981 27.22 19.8581 26.992 21.2501 26.992C22.6421 26.992 23.8901 27.22 24.9941 27.676C26.0981 28.108 27.0341 28.732 27.8021 29.548C28.5701 30.364 29.1581 31.36 29.5661 32.536C29.9981 33.688 30.2141 34.984 30.2141 36.424V38.008H17.5061V38.332C17.5061 39.532 17.8781 40.504 18.6221 41.248C19.3661 41.968 20.4581 42.328 21.8981 42.328C23.0021 42.328 23.9501 42.124 24.7421 41.716C25.5341 41.284 26.2181 40.72 26.7941 40.024L29.6741 43.156C28.9541 44.044 27.9461 44.812 26.6501 45.46C25.3541 46.108 23.7101 46.432 21.7181 46.432ZM21.2861 30.808C20.1341 30.808 19.2101 31.168 18.5141 31.888C17.8421 32.584 17.5061 33.532 17.5061 34.732V35.02H24.9941V34.732C24.9941 33.508 24.6581 32.548 23.9861 31.852C23.3381 31.156 22.4381 30.808 21.2861 30.808ZM34.16 52.912V48.556H51.44V52.912H34.16Z" fill="black"/>
</svg>
