<?xml version="1.0" encoding="UTF-8"?>
<svg xmlns="http://www.w3.org/2000/svg" version="1.1" viewBox="0 0 64 64">
  <defs>
    <style>
      .cls-1 {
        fill: #fff;
      }
    </style>
  </defs>
  <!-- Generator: Adobe Illustrator 28.6.0, SVG Export Plug-In . SVG Version: 1.2.0 Build 709)  -->
  <g>
    <g id="Layer_1">
      <rect class="cls-1" width="64" height="64" rx="14.2" ry="14.2"/>
      <path d="M19.8,49.1c-3.7,0-6.5-1-8.4-3.1-1.9-2-2.9-4.8-2.9-8.4s.2-3.4.7-4.8c.5-1.5,1.2-2.7,2.1-3.7.9-1,2.1-1.8,3.4-2.3,1.3-.5,2.8-.8,4.5-.8s3.1.3,4.4.8c1.3.5,2.4,1.3,3.3,2.2.9,1,1.6,2.1,2.1,3.5.5,1.4.8,2.9.8,4.6v1.9h-15.1v.4c0,1.4.4,2.6,1.3,3.5.9.9,2.2,1.3,3.9,1.3s2.4-.2,3.4-.7c.9-.5,1.7-1.2,2.4-2l3.4,3.7c-.9,1.1-2,2-3.6,2.7-1.5.8-3.5,1.2-5.8,1.2ZM19.3,30.6c-1.4,0-2.5.4-3.3,1.3-.8.8-1.2,1.9-1.2,3.4v.3h8.9v-.3c0-1.5-.4-2.6-1.2-3.4-.8-.8-1.8-1.2-3.2-1.2ZM34.6,56.8v-5.2h20.5v5.2h-20.5Z"/>
    </g>
  </g>
</svg>