<svg xmlns="http://www.w3.org/2000/svg" viewBox="0 0 24 24" fill="currentColor">
  <path d="M19.52 14.9c-.36-.06-.63-.12-.82-.2l-.14.36c.17.08.47.16.87.22.42.06.78.04 1.08-.05l-.07-.38c-.27.08-.57.1-.92.05zm-3.14-1.32c-.16.42-.36.74-.61.98l.24.28c.3-.28.54-.66.73-1.16.2-.5.28-.96.26-1.38l-.36.04c.02.37-.07.78-.26 1.24zM12.88 24l5.08-3.26 5.92.6L24 16l-1.04-5.68-4.38-4.06-.04-.02-.02-.04-1.54-1.54L12 0l-3.5 1.98-5 .28L0 6.58l.5 6.2L0 17.86 6.08 24l6.8-.58zm7.26-5.06-.92-.06c-.32-.02-.92-.14-1.24-.18.26-.74.26-1.28.02-1.94-.08-.24-.46-.84-.36-1.24.1-.38.52-.38.82-.74.4-.54.62-1.4.6-2.24-.08-1.68-1.16-2.84-2.84-2.88-1.36.02-1.84.42-2.24.92v.02L12.5 7.86l.44-.4c.14-.18.28-.42.28-.74 0-.66-.46-1.04-1.04-1.04-.66 0-1.02.52-1.02 1.02 0 .32.1.44.36.72l.1.1-1.66 1.54.02.02-1.68 1.54-.06.06-.62-.66c-.04-.04-.08-.06-.1-.08l-.1-.1c-.26-.34-.34-.58-.34-.98.02-.92.76-1.68 1.68-1.68.54 0 .88.18 1.22.48l.22-.22c-.04-.06-.24-.22-.28-.26-.4-.32-.76-.48-1.22-.48-1.14.02-2.1.96-2.1 2.14 0 .68.24 1.06.66 1.48l.54.58-3.4 3.26-.14.08c-.2.08-.46.02-.62-.16-.2-.24-.18-.56.04-.78l3.38-3.28-.08-.1-.1-.1c-.06-.08-.16-.18-.22-.24l-3.24 3.14c-.4.38-.38 1.02 0 1.44.38.4 1.02.42 1.44.06l.14-.1 3.3-3.2 1.78 1.86c-.08.22-.22.7-.22 1.06.02.86.54 1.58 1.3 1.74.6.1 1.12-.1 1.48-.36l.86.9.24-.22-.88-.9c.28-.32.48-.84.44-1.38-.02-.38-.18-.8-.4-1.02l1.18-1.1.82.86c-.02.12-.06.34-.06.54 0 1.02.56 1.86 1.64 2.16.56.14 1.38-.02 1.82-.46.48.54.76 1.04.78 1.44.04.56-.16.82-.66 1-.36.14-.9.28-1.02.3-.4.08-.6.04-.82-.12l-.1.34c.28.22.56.28 1 .22zm-4.62-6.22c-.12.36-.2.82-.12 1.2.12.5.52.94 1.08 1.14.1.04.2.06.3.08l-.64.6-.92-.94c-.24-.26-.4-.54-.5-.88a2.1 2.1 0 0 1 0-.98c.12-.44.36-.8.68-1.14l.62-.64c.32.16.48.46.4.86-.04.26-.18.56-.36.86-.18.28-.38.56-.54.84zm-4.26-4.8c.24 0 .58.1.72.34.16.3.18.58-.18 1.24l-.36.56-.18-.14-.02-.02a3.62 3.62 0 0 0-.76-.5c-.12-.42.02-.98.46-1.32.1-.08.2-.14.32-.16zm-1.7.68c-.3.26-.64.78-.7 1.32-.02.2-.02.52.06.64.02.02.04.06.08.1l-1.5 1.42c-.22-.58-.6-1.14-1.12-1.24-.18-.04-.56.04-.86.24-.1.06-.16.14-.22.18l1.76-1.66.16-.14a2.52 2.52 0 0 0 1.46-.96l.48-.44c.02.02.4.54.4.54zm-.64 7.64c-.48-.08-.86-.54-.88-1.22 0-.26.08-.64.22-1.02.16.16.32.36.44.56.18.3.3.76.3 1.1 0 .22-.02.42-.08.58zm.84-.88c-.06-.5-.22-.98-.48-1.4-.26-.4-.6-.74-.94-.9-.12-.06-.24-.16-.28-.32-.06-.32 0-.76.36-1.1l1.24-1.16.26.26c.06.06.1.14.1.22 0 .14-.08.26-.14.36-.02.02-.08.12-.12.16-.12.16-.2.24-.26.44-.1.28-.04.56.1.84.18.34.4.46.64.66-.22.26-.46.54-.58.96-.1.36-.08.72 0 1l-.4.38a1.3 1.3 0 0 1 .08-.56c.1-.28.24-.5.42-.84zm.06 1.44c-.58.02-1.02-.56-1.02-1.3 0-.44.1-.76.34-1.14l.94-.88c.38.1.72.44.9.88.16.38.2.86.08 1.4.42.08.86.02 1.16-.16l-.08.36c-.52.54-1.26.82-2.32.84zm4.78-1.62c-.18.02-.28.1-.44.1l.04.02c-.02.02-.04.04-.08.04-.3.06-.56-.02-.78-.18-.14-.1-.26-.26-.36-.48-.08-.2-.16-.38-.16-.56a.76.76 0 0 1 .16-.58c.08-.1.2-.16.32-.2.04 0 .14-.02.2-.04-.26.14-.42.4-.42.74 0 .28.1.54.28.78.18.22.4.34.64.38.16.02.28.02.4-.02.04-.02.12-.02.2 0zm-.56-.34c-.22-.02-.4-.24-.4-.5s.18-.48.4-.5c.22.02.4.24.4.5s-.18.48-.4.5zm1.7.54c-.28.26-.72.44-1.2.48l-.7.6c.26 0 .54-.04.84-.14.36-.12.7-.32.96-.6l.46-.48c.1.16.22.36.22.64 0 .18-.02.36-.1.56-.12.3-.4.56-.74.66-.34.08-.74.02-1.06-.24-.3-.26-.54-.66-.72-1.1v-.02c-.04-.08-.22-.6-.22-.86.02-.54.28-1 .66-1.26-.36-.24-.66-.66-.7-1.1-.04-.52.24-1.02.7-1.24l.02-.02c.22-.1.58-.18.72-.14-.14.06-.32.14-.44.22-.4.24-.56.66-.52 1.08.02.28.18.58.4.78.2.2.46.32.74.36.18.02.38.02.56-.04.56-.16.86-.6.86-1.08 0-.32-.12-.66-.32-.94-.04-.04-.08-.1-.12-.12l.12-.12c.34.24.56.54.72.9.2.48.28.98.22 1.5-.08.54-.3 1.02-.64 1.4-.16.18-.36.34-.52.46zm.54 1.12c-.1.2-.24.36-.4.5l-.54.46c.2.08.46.14.74.12.66-.04 1.18-.5 1.18-1.16-.02-.46-.24-.78-.5-1.02l-.34.32c.26.2.5.5.48.8-.02.32-.3.64-.62.98z"/>
</svg>
