<svg xmlns="http://www.w3.org/2000/svg" viewBox="0 0 24 24" fill="currentColor">
  <path d="m23.6 9.593-.033-.086L20.3.98a.851.851 0 0 0-.336-.405.87.87 0 0 0-.994.066.86.86 0 0 0-.285.471l-2.21 6.766H7.525L5.315 1.112a.856.856 0 0 0-.285-.471.87.87 0 0 0-.994-.066.851.851 0 0 0-.336.405L.433 9.507l-.032.086a6.066 6.066 0 0 0 2.012 7.01l.01.008.028.02 4.984 3.734 2.466 1.867 1.502 1.135a1.012 1.012 0 0 0 1.222 0l1.502-1.135 2.466-1.867 5.012-3.754.012-.01a6.068 6.068 0 0 0 2.009-7.008z"/>
</svg>
