<svg xmlns="http://www.w3.org/2000/svg" viewBox="0 0 24 24" fill="currentColor">
  <path d="M2.886 10.643a.752.752 0 0 0 .188.501l9.782 9.783a.752.752 0 0 0 .501.188 10.09 10.09 0 0 0 7.757-3.655.754.754 0 0 0-.038-.978L5.52 .925a.754.754 0 0 0-.978-.038 10.09 10.09 0 0 0-3.655 7.757v1.999zm.001 2.002a10.088 10.088 0 0 0 2.64 6.127.752.752 0 0 0 .545.228.752.752 0 0 0 .533-.22l5.828-5.828a.752.752 0 0 0 0-1.064L6.605 6.06a.752.752 0 0 0-1.064 0L.714 10.888a.752.752 0 0 0-.228.545v1.212h2.401zm8.47 8.469a.752.752 0 0 0 .545-.228.752.752 0 0 0 .22-.533.752.752 0 0 0-.228-.545l-5.828-5.828a.752.752 0 0 0-1.064 0L.174 18.807a.752.752 0 0 0 0 1.064l.955.955a10.088 10.088 0 0 0 8.227 2.289l2.001-.001z"/>
</svg>
