<svg xmlns="http://www.w3.org/2000/svg" viewBox="0 0 24 24" fill="currentColor">
  <path d="M4.459 4.208c.746.606 1.026.56 2.428.466l13.215-.793c.28 0 .047-.28-.046-.326L17.86 1.968c-.42-.326-.98-.7-2.055-.606L3.01 2.54c-.466.046-.56.28-.374.466zm.793 3.08v13.904c0 .747.373 1.027 1.214.98l14.523-.84c.841-.046.934-.56.934-1.166V6.354c0-.606-.233-.933-.747-.886l-15.177.887c-.56.046-.747.326-.747.933zm14.337.745c.093.42 0 .84-.42.888l-.7.14v10.264c-.608.327-1.168.514-1.635.514-.747 0-.933-.234-1.493-.933l-4.577-7.186v6.952l1.446.327s0 .84-1.167.84l-3.22.186c-.094-.187 0-.653.327-.746l.84-.233V9.854L7.822 9.76c-.094-.42.14-1.026.793-1.073l3.453-.234 4.764 7.279v-6.44l-1.213-.14c-.094-.514.28-.886.747-.933zM2.1 1.548l13.589-1c1.681-.14 2.101.047 2.801.56l3.873 2.707c.513.373.653.467.653 1.026v16.705c0 1.027-.373 1.634-1.681 1.727l-15.458.933c-.98.047-1.447-.093-1.96-.746l-3.127-4.057C.327 18.7 0 18.047 0 17.3V3.181c0-.933.373-1.727 2.1-1.633z"/>
</svg>
