<svg version="1.2" xmlns="http://www.w3.org/2000/svg" viewBox="0 0 1590 1591" width="1590" height="1591">
	<title>horizontal-logo-gradient-white-atlassian-svg</title>
	<defs>
		<linearGradient id="g1" x1="684.4" y1="854.5" x2="272.9" y2="1567.2" gradientUnits="userSpaceOnUse">
			<stop offset="0" stop-color="#ffffff" stop-opacity=".4"/>
			<stop offset=".923" stop-color="#ffffff" stop-opacity="1"/>
		</linearGradient>
	</defs>
	<style>
		.s0 { fill: url(#g1) } 
		.s1 { fill: #ffffff } 
	</style>
	<g id="horizontal-logo-gradient-white-atlassian">
		<g id="Group">
			<g id="Group_2">
				<g id="Group_3">
					<path id="Vector" class="s0" d="m471 735.1c-24-26.4-60.1-24-76.9 7.2l-389.6 780.7c-14.4 31.2 7.3 67.3 40.9 67.3h543.4c16.8 0 33.7-9.6 40.9-26.5 117.8-242.6 45.7-610.1-158.7-828.7z"/>
					<path id="Vector_2" class="s1" d="m757.1 24.1c-218.8 345.9-204.4 727.8-60.1 1016.1 144.3 288.2 254.9 506.8 262.1 523.6 7.2 16.9 24 26.5 40.9 26.5h543.4c33.6 0 57.7-36.1 40.8-67.3 0 0-730.9-1460.5-750.1-1496.5-14.5-33.7-55.3-36.1-77-2.4z"/>
				</g>
			</g>
		</g>
	</g>
</svg>