<svg xmlns="http://www.w3.org/2000/svg" viewBox="0 0 24 24" fill="currentColor">
  <path d="M20.625 8.073h-5.27V5.25a2.197 2.197 0 0 0-2.197-2.197h-.927a3.281 3.281 0 1 0-3.75 0h-.927A2.197 2.197 0 0 0 5.357 5.25v4.178a2.197 2.197 0 0 0 2.197 2.197h7.714a2.197 2.197 0 0 0 2.196-2.197V8.073h3.16a1.125 1.125 0 0 1 1.126 1.125v6.054a1.125 1.125 0 0 1-1.125 1.125h-2.732v3.375a1.125 1.125 0 0 1-1.125 1.125h-6.75a1.125 1.125 0 0 1-1.125-1.125v-3.375H5.625A2.625 2.625 0 0 1 3 13.752V9.198a2.625 2.625 0 0 1 2.625-2.625h.732V5.25A3.696 3.696 0 0 1 10.054 1.5h.927a4.781 4.781 0 0 1 2.019.446 4.781 4.781 0 0 1 2.019-.446h.927a3.696 3.696 0 0 1 3.697 3.75v1.323h.982A2.625 2.625 0 0 1 23.25 9.2v6.054a2.625 2.625 0 0 1-2.625 2.625zM12 2.25a1.781 1.781 0 1 0 0 3.563 1.781 1.781 0 0 0 0-3.563z"/>
</svg>
